<svg id="SvgjsSvg1396" width="288" height="288" xmlns="http://www.w3.org/2000/svg" version="1.1" xmlns:xlink="http://www.w3.org/1999/xlink" xmlns:svgjs="http://svgjs.com/svgjs"><defs id="SvgjsDefs1397"></defs><g id="SvgjsG1398"><svg xmlns="http://www.w3.org/2000/svg" enable-background="new 0 0 32 32" viewBox="0 0 32 32" width="288" height="288"><path fill-rule="evenodd" d="M15.995,31.743c-8.709,0-15.754-7.053-15.74-15.756
	C0.269,7.271,7.306,0.249,16.021,0.257c8.695,0.008,15.723,7.041,15.725,15.74C31.751,24.706,24.71,31.745,15.995,31.743z
	 M19.837,16.042c0.008-0.652-0.227-1.225-0.664-1.68c-1.666-1.725-3.348-3.434-5.027-5.145c-0.262-0.266-0.592-0.377-0.963-0.289
	c-0.813,0.189-1.094,1.137-0.504,1.75c0.898,0.939,1.816,1.859,2.725,2.789c0.699,0.717,1.4,1.432,2.094,2.154
	c0.326,0.334,0.324,0.455,0.01,0.803c-0.135,0.15-0.281,0.291-0.422,0.438c-1.449,1.486-2.9,2.973-4.354,4.459
	c-0.268,0.273-0.43,0.586-0.354,0.975c0.082,0.406,0.314,0.689,0.723,0.816c0.424,0.131,0.779,0.008,1.076-0.295
	c0.623-0.629,1.24-1.262,1.855-1.895c0.99-1.014,1.979-2.029,2.969-3.045C19.499,17.368,19.829,16.776,19.837,16.042z" clip-rule="evenodd" fill="#ffffff" class="color000 svgShape"></path></svg></g></svg>