<svg id="l_d_35" xmlns="http://www.w3.org/2000/svg" xmlns:xlink="http://www.w3.org/1999/xlink" viewBox="0 0 45 45" width="45" height="45" preserveAspectRatio="xMidYMid meet" style="width: 100%; height: 100%; transform: translate3d(0px, 0px, 0px); content-visibility: visible;"><defs id="l_d_36"><clipPath id="__lottie_element_17"><rect id="l_d_39" width="45" height="45" x="0" y="0"></rect></clipPath><g id="__lottie_element_28"><g id="l_d_73" style="display: none;"><g id="l_d_78"><path id="l_d_79"></path></g></g></g><mask id="__lottie_element_28_1" mask-type="alpha"><use id="l_d_87" xlink:href="#__lottie_element_28"></use></mask><g id="__lottie_element_34"><g id="l_d_88" style="display: none;"><g id="l_d_93"><path id="l_d_94"></path></g></g></g><mask id="__lottie_element_34_1" mask-type="alpha"><use id="l_d_113" xlink:href="#__lottie_element_34"></use></mask></defs><g id="l_d_37" clipPath="url(#__lottie_element_17)"><g id="l_d_114" transform="matrix(1,0,0,1,-23.5,-17.5)" opacity="1" style="display: block;"><g id="l_d_118" opacity="1" transform="matrix(1,0,0,1,40,40)"></g><g id="l_d_119" opacity="1" transform="matrix(1,0,0,1,40,40)"><path id="l_d_120" strokeLinecap="butt" strokeLinejoin="miter" fillOpacity="0" stroke-miterlimit="4" stroke="rgb(34,34,34)" strokeOpacity="1" strokeWidth="2" d=" M-12,-13 C-12,-13 12,-13 12,-13 C12.552000045776367,-13 13,-12.552000045776367 13,-12 C13,-12 13,12 13,12 C13,12.552000045776367 12.552000045776367,13 12,13 C12,13 -12,13 -12,13 C-12.552000045776367,13 -13,12.552000045776367 -13,12 C-13,12 -13,-12 -13,-12 C-13,-12.552000045776367 -12.552000045776367,-13 -12,-13z"></path></g><g id="l_d_121" opacity="1" transform="matrix(1,0,0,1,40,35)"><path id="l_d_122" strokeLinecap="butt" strokeLinejoin="miter" fillOpacity="0" stroke-miterlimit="4" stroke="rgb(34,34,34)" strokeOpacity="1" strokeWidth="2" d=" M13,0 C13,0 -13,0 -13,0"></path></g><g id="l_d_123" opacity="1" transform="matrix(1,0,0,1,49,31)"><path id="l_d_124" fill="rgb(0,0,0)" fillOpacity="1" d=" M0,-1 C0.5519999861717224,-1 1,-0.5519999861717224 1,0 C1,0.5519999861717224 0.5519999861717224,1 0,1 C-0.5519999861717224,1 -1,0.5519999861717224 -1,0 C-1,-0.5519999861717224 -0.5519999861717224,-1 0,-1z"></path></g><g id="l_d_125" opacity="1" transform="matrix(1,0,0,1,43,31)"><path id="l_d_126" fill="rgb(0,0,0)" fillOpacity="1" d=" M0,-1 C0.5519999861717224,-1 1,-0.5519999861717224 1,0 C1,0.5519999861717224 0.5519999861717224,1 0,1 C-0.5519999861717224,1 -1,0.5519999861717224 -1,0 C-1,-0.5519999861717224 -0.5519999861717224,-1 0,-1z"></path></g><g id="l_d_127" opacity="1" transform="matrix(1,0,0,1,37,31)"><path id="l_d_128" fill="rgb(0,0,0)" fillOpacity="1" d=" M0,-1 C0.5519999861717224,-1 1,-0.5519999861717224 1,0 C1,0.5519999861717224 0.5519999861717224,1 0,1 C-0.5519999861717224,1 -1,0.5519999861717224 -1,0 C-1,-0.5519999861717224 -0.5519999861717224,-1 0,-1z"></path></g><g id="l_d_129" opacity="1" transform="matrix(1,0,0,1,31,31)"><path id="l_d_130" fill="rgb(0,0,0)" fillOpacity="1" d=" M0,-1 C0.5519999861717224,-1 1,-0.5519999861717224 1,0 C1,0.5519999861717224 0.5519999861717224,1 0,1 C-0.5519999861717224,1 -1,0.5519999861717224 -1,0 C-1,-0.5519999861717224 -0.5519999861717224,-1 0,-1z"></path></g></g><g id="l_d_96" mask="url(#__lottie_element_34_1)" style="display: none;"><g id="l_d_95"><g id="l_d_99"></g><g id="l_d_100"><path id="l_d_101" strokeLinecap="butt" strokeLinejoin="miter" fillOpacity="0" stroke-miterlimit="4"></path></g><g id="l_d_102"><path id="l_d_103" strokeLinecap="butt" strokeLinejoin="miter" fillOpacity="0" stroke-miterlimit="4"></path></g><g id="l_d_104"><path id="l_d_105"></path></g><g id="l_d_106"><path id="l_d_107"></path></g><g id="l_d_108"><path id="l_d_109"></path></g><g id="l_d_110"><path id="l_d_111"></path></g></g></g><g id="l_d_81" mask="url(#__lottie_element_28_1)" style="display: none;"><g id="l_d_80"><g id="l_d_84"><path id="l_d_85" strokeLinecap="butt" strokeLinejoin="round" fillOpacity="0"></path></g></g></g><g id="l_d_56" style="display: none;"><g id="l_d_60"></g><g id="l_d_61"><path id="l_d_62" strokeLinecap="butt" strokeLinejoin="miter" fillOpacity="0" stroke-miterlimit="4"></path></g><g id="l_d_63"><path id="l_d_64" strokeLinecap="butt" strokeLinejoin="miter" fillOpacity="0" stroke-miterlimit="4"></path></g><g id="l_d_65"><path id="l_d_66"></path></g><g id="l_d_67"><path id="l_d_68"></path></g><g id="l_d_69"><path id="l_d_70"></path></g><g id="l_d_71"><path id="l_d_72"></path></g></g><g id="l_d_48" style="display: none;"><g id="l_d_52"><path id="l_d_53" strokeLinecap="butt" strokeLinejoin="miter" fillOpacity="0" stroke-miterlimit="4"></path></g><g id="l_d_54"><path id="l_d_55" strokeLinecap="butt" strokeLinejoin="miter" fillOpacity="0" stroke-miterlimit="4"></path></g></g><g id="l_d_40" transform="matrix(1,0,0,1,-23.5,-17.5)" opacity="1" style="display: block;"><g id="l_d_44" opacity="1" transform="matrix(1,0,0,1,40,44)"><path id="l_d_45" strokeLinecap="butt" strokeLinejoin="miter" fillOpacity="0" stroke-miterlimit="4" stroke="rgb(34,34,34)" strokeOpacity="1" strokeWidth="2" d=" M-9,-5 C-9,-5 9,-5 9,-5 C9,-5 9,5 9,5 C9,5 -9,5 -9,5 C-9,5 -9,-5 -9,-5z"></path></g><g id="l_d_46" opacity="1" transform="matrix(1,0,0,1,40,35)"><path id="l_d_47" strokeLinecap="butt" strokeLinejoin="miter" fillOpacity="0" stroke-miterlimit="4" stroke="rgb(34,34,34)" strokeOpacity="1" strokeWidth="2" d=" M13,0 C13,0 -13,0 -13,0"></path></g></g></g></svg>